<?xml version="1.0" encoding="UTF-8"?> <svg xmlns="http://www.w3.org/2000/svg" width="418" height="159" viewBox="0 0 418 159" fill="none"><g clip-path="url(#clip0)"><path d="M47.1231 68.2258H64.2719L40.355 130.122H39.5005H24.7714H23.9254L0 68.2258H17.1572L32.1402 109.72L47.1231 68.2258ZM99.94 107.313L85.3969 68.2258H68.2397L92.0466 128.978L91.2345 131.208C91.2345 131.208 79.4664 159.008 79.6948 159.008C79.9317 159.008 80.1686 159.008 80.4054 159C90.7438 158.798 98.5017 155.246 103.679 141.426L131.226 68.2342H114.187L99.94 107.313ZM198.738 99.233C198.738 117.497 185.447 131.444 169.144 131.444C161.648 131.444 155.007 128.557 150.176 123.515V130.122H134.838V52.3267C134.838 38.3128 150.904 33.2965 150.904 33.2965V74.1175C155.616 69.5472 162.021 66.9044 169.153 66.9044C185.447 66.9044 198.738 80.8425 198.738 99.233ZM182.79 99.3508C182.79 89.2508 175.658 81.5579 166.843 81.5579C158.019 81.5579 150.896 89.4948 150.896 99.3508C150.896 108.963 158.027 116.773 166.843 116.773C175.658 116.773 182.79 109.207 182.79 99.3508ZM264.617 105.36H217.621C219.677 112.935 225.709 117.615 233.205 117.615C238.518 117.615 243.712 115.334 246.369 110.402H263.407C259.778 123.027 248.788 131.553 233.331 131.553C215.81 131.553 201.437 117.127 201.437 99.2246C201.437 81.3138 215.81 66.6519 233.331 66.6519C251.69 66.6603 266.91 80.8425 264.617 105.36ZM248.788 92.3818C246.859 85.1686 240.81 80.5984 233.205 80.5984C225.954 80.5984 220.15 85.1686 217.866 92.3818H248.788Z" fill="#77BE43"></path><path d="M276.994 35.6952H284.219V42.8831H291.825V35.6952H299.05V28.1286H291.825V20.9408H284.219V28.1286H276.994V35.6952ZM314.388 27.3122C314.388 53.0168 282.697 51.4008 276.241 59.4388C273.39 62.9822 274.634 69.0759 274.634 69.0759C274.634 69.0759 258.484 55.0621 258.484 40.3834C258.484 19.2743 283.517 13.6435 287.553 9.63713C292.392 4.82277 291.004 0 291.004 0C291.004 0 314.388 4.82277 314.388 27.3122Z" fill="#77BE43"></path><path d="M302.933 125.308C299.659 125.308 297.011 122.32 297.011 118.701C297.011 114.997 299.659 111.967 302.933 111.967C305.082 111.967 306.926 113.306 307.73 114.871H314.05C312.705 109.695 308.492 106.572 302.925 106.572C295.979 106.572 290.996 112.01 290.996 118.667C290.996 125.316 295.971 130.669 302.925 130.669C308.525 130.669 312.747 127.589 314.092 122.37H307.764C307.011 123.97 305.124 125.308 302.933 125.308Z" fill="#E25926"></path><path d="M334.244 109.602C332.451 107.725 329.98 106.657 327.163 106.657C321.156 106.657 316.173 111.833 316.173 118.659C316.173 125.443 321.148 130.619 327.163 130.619C329.989 130.619 332.451 129.55 334.244 127.673V130.131H339.896V107.153H334.244V109.602ZM328.06 125.173C324.786 125.173 322.138 122.362 322.138 118.701C322.138 114.955 324.786 112.102 328.06 112.102C331.334 112.102 333.974 115.048 333.974 118.701C333.982 122.269 331.334 125.173 328.06 125.173Z" fill="#E25926"></path><path d="M348.99 109.426V107.153H343.339V130.131H349.261V118.844C349.261 117.017 349.49 115.141 350.742 113.844C352.087 112.414 354.058 112.144 356.435 112.414V106.699C353.66 106.252 350.877 107.103 348.99 109.426Z" fill="#E25926"></path><path d="M368.796 106.564C362.298 106.564 356.96 112.001 356.96 118.659C356.96 125.308 362.298 130.661 368.796 130.661C374.54 130.661 378.618 127.496 379.963 122.808H373.643C372.653 124.635 370.725 125.485 368.753 125.485C365.97 125.485 363.728 123.751 362.967 120.94H380.411C381.266 111.833 375.615 106.564 368.796 106.564ZM363.06 116.117C363.906 113.44 366.063 111.749 368.753 111.749C371.579 111.749 373.821 113.44 374.54 116.117H363.06Z" fill="#E25926"></path><path d="M300.801 91.7C303.221 91.7 305.243 90.7153 306.673 89.0656V91.1613H312.324V68.1837H306.402V81.6084C306.402 84.1502 304.566 86.1113 301.918 86.1113C298.06 86.1113 297.612 82.8961 297.612 81.6084V68.1922H291.69V81.6168C291.698 87.6432 295.328 91.7 300.801 91.7Z" fill="#E25926"></path><path d="M413.558 81.5326V73.4105H417.721V68.1922H413.558V62.351H407.636V68.1922H404.861V73.4105H407.636V81.4821C407.636 87.7694 411.223 91.8347 418 91.1193V85.7662C415.039 85.9514 413.558 84.7394 413.558 81.5326Z" fill="#E25926"></path><path d="M394.269 67.6114C391.807 67.6114 389.785 68.6803 388.305 70.4226V68.1922H382.653V91.1698H388.576V77.7367C388.576 75.1528 390.411 73.1917 393.059 73.1917C396.96 73.1917 397.366 76.4069 397.366 77.7367V91.1698H403.279V77.7367C403.279 71.6683 399.692 67.6114 394.269 67.6114Z" fill="#E25926"></path><path d="M368.085 91.7C373.829 91.7 377.899 88.5353 379.252 83.8472H372.933C371.943 85.6736 370.014 86.5237 368.043 86.5237C365.259 86.5237 363.017 84.7815 362.256 81.9703H379.701C380.547 72.8718 374.904 67.603 368.085 67.603C361.579 67.603 356.241 73.0486 356.241 79.6978C356.241 86.347 361.579 91.7 368.085 91.7ZM368.043 72.7793C370.868 72.7793 373.11 74.4794 373.829 77.1559H362.349C363.195 74.4794 365.344 72.7793 368.043 72.7793Z" fill="#E25926"></path><path d="M322.002 79.8745C322.002 78.0397 322.231 76.1712 323.483 74.875C324.828 73.4442 326.799 73.1748 329.177 73.4442V67.7292C326.393 67.2832 323.618 68.1332 321.732 70.4478V68.1753H316.08V91.1529H322.002V79.8745Z" fill="#E25926"></path><path d="M353.847 90.0083V68.1922H348.195V70.6498C346.359 68.7729 343.94 67.704 341.114 67.704C335.107 67.704 330.133 72.8803 330.133 79.7062C330.133 86.4901 335.107 91.6664 341.114 91.6664C343.804 91.6664 346.139 90.6816 347.933 88.9898V90.1093C347.933 94.2166 346.046 96.9352 341.875 96.9352C340.26 96.9352 337.933 96.2198 337.163 94.3934H330.657C331.554 99.2582 336.359 102.423 341.875 102.423C349.27 102.406 353.847 97.6338 353.847 90.0083ZM342.002 86.2123C338.728 86.2123 336.089 83.4011 336.089 79.7399C336.089 75.9944 338.728 73.1412 342.002 73.1412C345.276 73.1412 347.924 76.087 347.924 79.7399C347.924 83.3086 345.276 86.2123 342.002 86.2123Z" fill="#E25926"></path></g><defs><clipPath id="clip0"><rect width="418" height="159" fill="white"></rect></clipPath></defs></svg> 